<?xml version="1.0" encoding="iso-8859-1"?>
<!-- Generator: Adobe Illustrator 19.2.1, SVG Export Plug-In . SVG Version: 6.00 Build 0)  -->
<svg version="1.1" xmlns="http://www.w3.org/2000/svg" xmlns:xlink="http://www.w3.org/1999/xlink" x="0px" y="0px" width="68px"
	 height="56px" viewBox="0 0 68 56" style="enable-background:new 0 0 68 56;" xml:space="preserve">
<g id="Layer_1">
</g>
<g id="bell_x5F_icon_x5F_large">
</g>
<g id="security_x5F_icon_x5F_large">
</g>
<g id="camera_x5F_icon_x5F_large">
</g>
<g id="bridges_x5F_icon_x5F_large">
</g>
<g id="light_x5F_icon_x5F_large">
</g>
<g id="sensors_x5F_icon_x5F_large">
</g>
<g id="ac_x5F_icon_x5F_large">
	<g>
		<g>
			<path style="fill:#666666;" d="M33.99,5c9.45,0,17.82,5.67,21.34,14.44c2.29,5.7,2.22,11.95-0.2,17.6
				c-2.41,5.65-6.88,10.02-12.58,12.3c-2.74,1.1-5.62,1.66-8.55,1.66c-9.45,0-17.82-5.67-21.34-14.44c-2.29-5.7-2.22-11.95,0.2-17.6
				c2.41-5.65,6.88-10.02,12.58-12.3C28.19,5.56,31.06,5,33.99,5 M33.99,3c-3.18,0-6.31,0.61-9.29,1.8
				c-6.19,2.48-11.05,7.23-13.67,13.37c-2.62,6.14-2.7,12.93-0.22,19.13C14.63,46.84,23.74,53,34.01,53c3.19,0,6.31-0.61,9.29-1.8
				c6.19-2.49,11.05-7.23,13.67-13.37c2.62-6.14,2.7-12.93,0.22-19.13C53.37,9.16,44.26,3,33.99,3L33.99,3z"/>
		</g>
		<path style="fill:none;stroke:#666666;stroke-width:2;stroke-linecap:round;stroke-linejoin:round;stroke-miterlimit:10;" d="
			M48.92,29.22c-0.96-0.51-2.07-0.76-3.38-0.76c-1.09,0-2.11,0.17-2.93,0.31c-0.37,0.06-0.69,0.12-0.94,0.14
			c-0.56,0.06-1.12,0.08-1.66,0.08c-1.08,0-2-0.11-2.76-0.27c0.14-0.64,0.1-1.32-0.16-1.97c-0.05-0.13-0.12-0.26-0.19-0.39
			l0.87-0.72c0.07-0.06,0.13-0.13,0.17-0.21c0.04-0.07,0.99-1.73,1.74-3.51c1.34-3.13,1.44-6.72,0.26-9.15
			c-1.34-2.75-3.83-4.47-6.49-4.47c-0.47,0-0.95,0.06-1.41,0.17c-3.25,0.78-4.64,3.65-4.55,6c0.09,2.45,1.72,4.4,2.79,5.69
			c0.24,0.29,0.45,0.54,0.6,0.74c1.07,1.47,1.69,2.81,2.06,3.9c-0.07,0.02-0.14,0.04-0.21,0.07c-0.71,0.29-1.27,0.79-1.63,1.41
			l-1.05-0.39c-0.08-0.03-0.19-0.05-0.26-0.05c-0.08,0-2,0.01-3.91,0.23c-3.38,0.4-6.54,2.1-8.05,4.33c-2.04,3-1.95,6.7,0.21,8.99
			c1.46,1.54,3.12,1.86,4.25,1.86c1.13,0,2.27-0.32,3.21-0.91c2.08-1.3,2.96-3.68,3.54-5.26c0.13-0.35,0.24-0.66,0.35-0.89
			c0.75-1.67,1.6-2.88,2.36-3.74c0.6,0.54,1.37,0.84,2.18,0.86l0.19,1.13c0.02,0.09,0.05,0.18,0.09,0.25c0.04,0.07,1,1.73,2.15,3.27
			c2.03,2.73,5.08,4.62,7.77,4.82c0.23,0.02,0.47,0.03,0.7,0.03h0c3.34,0,6.15-1.89,6.99-4.69C52.78,32.96,50.99,30.32,48.92,29.22z
			 M33.98,30.98C32.33,30.98,31,29.65,31,28c0-1.64,1.33-2.98,2.98-2.98c1.64,0,2.98,1.33,2.98,2.98
			C36.96,29.65,35.62,30.98,33.98,30.98z"/>
	</g>
</g>
<g id="fan_x5F_icon_x5F_large">
</g>
<g id="outlet_x5F_icon_x5F_large">
</g>
<g id="garage_x5F_icon_x5F_large">
</g>
<g id="humidifier_x5F_icon_x5F_large">
</g>
<g id="heating_x5F_icon_x5F_large">
</g>
<g id="locks_x5F_icon_x5F_large">
</g>
<g id="shades_x5F_icon_x5F_large">
</g>
<g id="purifiers_x5F_icon_x5F_large">
</g>
</svg>
