<?xml version="1.0" encoding="iso-8859-1"?>
<!-- Generator: Adobe Illustrator 19.2.1, SVG Export Plug-In . SVG Version: 6.00 Build 0)  -->
<svg version="1.1" xmlns="http://www.w3.org/2000/svg" xmlns:xlink="http://www.w3.org/1999/xlink" x="0px" y="0px" width="68px"
	 height="56px" viewBox="0 0 68 56" style="enable-background:new 0 0 68 56;" xml:space="preserve">
<g id="Layer_1">
</g>
<g id="bell_x5F_icon_x5F_large">
</g>
<g id="security_x5F_icon_x5F_large">
</g>
<g id="camera_x5F_icon_x5F_large">
</g>
<g id="bridges_x5F_icon_x5F_large">
</g>
<g id="light_x5F_icon_x5F_large">
</g>
<g id="sensors_x5F_icon_x5F_large">
</g>
<g id="ac_x5F_icon_x5F_large">
</g>
<g id="fan_x5F_icon_x5F_large">
</g>
<g id="outlet_x5F_icon_x5F_large">
</g>
<g id="garage_x5F_icon_x5F_large">
</g>
<g id="humidifier_x5F_icon_x5F_large">
</g>
<g id="heating_x5F_icon_x5F_large">
</g>
<g id="locks_x5F_icon_x5F_large">
</g>
<g id="shades_x5F_icon_x5F_large">
</g>
<g id="purifiers_x5F_icon_x5F_large">
	<g>
		<path style="fill:#666666;" d="M40,3c0.54,0,1,0.46,1,1v48c0,0.54-0.46,1-1,1H28c-0.54,0-1-0.46-1-1V4c0-0.54,0.46-1,1-1H40 M40,1
			H28c-1.65,0-3,1.35-3,3v48c0,1.65,1.35,3,3,3h12c1.65,0,3-1.35,3-3V4C43,2.35,41.65,1,40,1L40,1z"/>
	</g>
	<path style="fill:none;stroke:#666666;stroke-width:2;stroke-miterlimit:10;" d="M53.52,21.18c0,0-6.15-0.95-10.26,1.59
		c-3.97,2.45-3.71,3.74-8.76,5.29"/>
	<path style="fill:none;stroke:#666666;stroke-width:2;stroke-miterlimit:10;" d="M53.69,12.83c0,0-6.32-1.12-10.43,1.42
		c-3.97,2.45-3.71,3.87-8.76,5.42"/>
	<path style="fill:none;stroke:#666666;stroke-width:2;stroke-miterlimit:10;" d="M53.69,29.86c0,0-5.37-1.12-9.49,1.42
		c-3.97,2.45-4.66,3.88-9.71,5.43"/>
	<path style="fill:none;stroke:#666666;stroke-width:2;stroke-miterlimit:10;" d="M13,27.02c0,0,2.96,0.15,6.18-1.69
		c2.41-1.38,4.3-3.51,6.41-4.13"/>
	<path style="fill:none;stroke:#666666;stroke-width:2;stroke-miterlimit:10;" d="M13,35.54c0,0,2.96,0.09,6.18-1.75
		c2.41-1.38,4.3-3.51,6.41-4.13"/>
	<path style="fill:none;stroke:#666666;stroke-width:2;stroke-miterlimit:10;" d="M13.09,44.06c0,0,2.87,0.1,6.09-1.74
		c2.41-1.38,4.3-3.51,6.41-4.13"/>
	<polyline style="fill:none;stroke:#666666;stroke-width:2;stroke-linecap:round;stroke-miterlimit:10;" points="51.33,18.51 
		54,21.14 51.32,24.18 	"/>
</g>
</svg>
