<?xml version="1.0" encoding="UTF-8"?>
<svg width="90px" height="75px" viewBox="0 0 90 75" version="1.1" xmlns="http://www.w3.org/2000/svg" xmlns:xlink="http://www.w3.org/1999/xlink">
    <!-- Generator: Sketch 51.2 (57519) - http://www.bohemiancoding.com/sketch -->
    <title>app-store</title>
    <desc>Created with Sketch.</desc>
    <defs></defs>
    <g id="Page-1" stroke="none" stroke-width="1" fill="none" fill-rule="evenodd">
        <g id="app-store" transform="translate(13.000000, 2.000000)" fill="#929292" fill-rule="nonzero">
            <path d="M62.4125417,38.1721473 C61.8923758,37.4767172 61.1732575,36.9861523 60.3492169,36.7512641 C59.9581333,36.63959 59.5648015,36.5895299 59.1616508,36.5660474 C58.7173502,36.5402466 58.2737991,36.5421635 57.8294986,36.5421635 L49.033734,36.5421635 L37.40833,16.0023827 C35.6458438,17.8429952 34.8572811,19.9042486 34.5549181,21.776827 C34.116664,24.4919209 34.6523078,27.2774876 36.001062,29.6606551 L49.9706423,54.3422142 C50.19298,54.7345962 50.4126819,55.1277488 50.6569185,55.5074234 C50.8784938,55.851671 51.1174464,56.1739716 51.4081041,56.4639261 C52.019639,57.0742552 52.7953594,57.4647117 53.6458338,57.5759957 C54.4913988,57.6872796 55.3490438,57.5116898 56.0870382,57.0769506 C56.824632,56.6425965 57.4029501,55.9721971 57.7317343,55.1701052 C58.0620299,54.3630076 58.1186577,53.4819777 57.9061262,52.636758 C57.8053385,52.2351346 57.6513341,51.8631615 57.4693838,51.495039 C57.2696947,51.0895649 57.0458455,50.6987229 56.8235079,50.3063409 L53.6024232,44.6142999 L57.8294986,44.6142999 C58.2737991,44.6142999 58.7173502,44.6166106 59.1616508,44.5908111 C59.5648015,44.5669376 59.9581333,44.5172645 60.3492169,44.4055945 C61.1732575,44.1707036 61.8923758,43.6801257 62.4125417,42.9847087 C62.9293224,42.2931255 63.2094118,41.4479033 63.2094118,40.5784215 C63.2094118,39.7097168 62.9293224,38.8633418 62.4125417,38.1721473" id="Shape"></path>
            <path d="M23.3784817,36.495583 L39.5966631,7.41867739 C39.8188888,7.02004206 40.0430031,6.62298573 40.2433166,6.21104719 C40.4250941,5.83707078 40.579669,5.45917315 40.680201,5.05115583 C40.8933592,4.19247465 40.8362892,3.29741033 40.5052144,2.47786237 C40.176416,1.66260407 39.5981766,0.981917275 38.8593214,0.540253793 C38.1208412,0.0989850562 37.2610555,-0.0797856997 36.4148646,0.0332585727 C35.5637583,0.146710756 34.7867315,0.542990748 34.1740975,1.16304339 C33.8838458,1.45760853 33.6442483,1.78504347 33.4223977,2.13516361 C33.1782599,2.52049575 32.9579227,2.91990746 32.7353218,3.3185428 L31.7096041,5.15716034 L30.6838992,3.3185428 C30.4616735,2.9195127 30.2413494,2.52010101 29.9971985,2.13516361 C29.7749729,1.78504347 29.5357505,1.45760853 29.2447357,1.16304339 C28.6328647,0.542990748 27.8558379,0.146710756 27.0047316,0.0328769791 C26.1577905,-0.0797856997 25.2987548,0.0989850562 24.5602748,0.540253793 C23.8214197,0.981917275 23.2428051,1.66260407 22.9140068,2.47786237 C22.5833199,3.29741033 22.5262501,4.19247465 22.7390201,5.05115583 C22.8399272,5.45917315 22.9941269,5.83707078 23.1762925,6.21104719 C23.3762181,6.62298573 23.6003323,7.02004206 23.8229331,7.41867739 L27.135506,13.3578375 L14.2298844,36.495583 L5.38628343,36.495583 C4.94145821,36.495583 4.4970107,36.4936355 4.05256189,36.5198472 C3.64855351,36.5437034 3.25512607,36.5945608 2.86321073,36.7080131 C2.03856455,36.9466416 1.31822603,37.445018 0.797813941,38.1515217 C0.280425433,38.8537225 0,39.7135748 0,40.5961124 C0,41.4794393 0.280425433,42.3381205 0.797813941,43.0403214 C1.31822603,43.7472066 2.03856455,44.2455962 2.86321073,44.4842274 C3.25512607,44.5972835 3.64855351,44.6481397 4.05256189,44.6723933 C4.4970107,44.6986037 4.94145821,44.6962562 5.38628343,44.6962562 L40.1476871,44.6962562 C40.1930507,44.6019785 40.3041635,44.3551325 40.4129998,43.9854536 C41.5146727,40.2573349 38.7792011,36.495583 35.0127343,36.495583 L23.3784817,36.495583 Z M8.2622364,46.038953 L6.15983103,49.9927342 C5.94271126,50.4019677 5.723371,50.809595 5.52696361,51.2324829 C5.34905064,51.616415 5.19813932,52.0043631 5.09938177,52.4232349 C4.89113765,53.3047539 4.94662089,54.2236213 5.27063579,55.0653808 C5.59243274,55.90192 6.15872078,56.6011108 6.88183976,57.054119 C7.60532713,57.5075287 8.44532715,57.6906596 9.27386137,57.5745964 C10.106834,57.458533 10.8676799,57.0513077 11.4668879,56.414767 C11.7513265,56.1123601 11.9854607,55.7762177 12.2025817,55.4171857 C12.441895,55.0212054 12.6575375,54.6111682 12.8753965,54.2019347 L15.9243223,48.4674464 C15.686499,48.0746784 13.4102394,44.593584 8.2622364,46.038953 Z" id="Shape"></path>
        </g>
    </g>
</svg>