<?xml version="1.0" encoding="iso-8859-1"?>
<!-- Generator: Adobe Illustrator 19.2.1, SVG Export Plug-In . SVG Version: 6.00 Build 0)  -->
<svg version="1.1" xmlns="http://www.w3.org/2000/svg" xmlns:xlink="http://www.w3.org/1999/xlink" x="0px" y="0px" width="68px"
	 height="56px" viewBox="0 0 68 56" style="enable-background:new 0 0 68 56;" xml:space="preserve">
<g id="Layer_1">
</g>
<g id="bell_x5F_icon_x5F_large">
</g>
<g id="security_x5F_icon_x5F_large">
</g>
<g id="camera_x5F_icon_x5F_large">
</g>
<g id="bridges_x5F_icon_x5F_large">
	<g>
		<path style="fill:#666666;stroke:#666666;stroke-miterlimit:10;" d="M34,8.5c-2.45,0-4.63,1.19-6,3.02l0.71,0.71
			C29.89,10.58,31.82,9.5,34,9.5c2.27,0,4.26,1.17,5.43,2.93l0.72-0.72C38.79,9.77,36.54,8.5,34,8.5z"/>
		<path style="fill:#666666;stroke:#666666;stroke-miterlimit:10;" d="M25.15,8.67C27.26,6.12,30.44,4.5,34,4.5
			c3.64,0,6.89,1.71,9,4.36l0.71-0.71C41.42,5.32,37.92,3.5,34,3.5c-3.83,0-7.26,1.74-9.56,4.46L25.15,8.67z"/>
	</g>
	<rect x="34" y="33" transform="matrix(1.048946e-10 1 -1 1.048946e-10 80 -12)" style="fill:#666666;" width="24" height="2"/>
	<g>
		<path style="fill:#666666;" d="M26,38.5c1.38,0,2.5,1.12,2.5,2.5s-1.12,2.5-2.5,2.5s-2.5-1.12-2.5-2.5S24.62,38.5,26,38.5
			 M26,36.5c-2.49,0-4.5,2.01-4.5,4.5c0,2.49,2.01,4.5,4.5,4.5s4.5-2.01,4.5-4.5C30.5,38.51,28.49,36.5,26,36.5L26,36.5z"/>
	</g>
	<g>
		<path style="fill:#666666;" d="M47,17c2.21,0,4,1.79,4,4v26c0,2.21-1.79,4-4,4H21c-2.21,0-4-1.79-4-4V21c0-2.21,1.79-4,4-4H47
			 M47,15H21c-3.3,0-6,2.7-6,6v26c0,3.3,2.7,6,6,6h26c3.3,0,6-2.7,6-6V21C53,17.7,50.3,15,47,15L47,15z"/>
	</g>
</g>
<g id="light_x5F_icon_x5F_large">
</g>
<g id="sensors_x5F_icon_x5F_large">
</g>
<g id="ac_x5F_icon_x5F_large">
</g>
<g id="fan_x5F_icon_x5F_large">
</g>
<g id="outlet_x5F_icon_x5F_large">
</g>
<g id="garage_x5F_icon_x5F_large">
</g>
<g id="humidifier_x5F_icon_x5F_large">
</g>
<g id="heating_x5F_icon_x5F_large">
</g>
<g id="locks_x5F_icon_x5F_large">
</g>
<g id="shades_x5F_icon_x5F_large">
</g>
<g id="purifiers_x5F_icon_x5F_large">
</g>
</svg>
