<?xml version="1.0" encoding="iso-8859-1"?>
<!-- Generator: Adobe Illustrator 19.2.1, SVG Export Plug-In . SVG Version: 6.00 Build 0)  -->
<svg version="1.1" xmlns="http://www.w3.org/2000/svg" xmlns:xlink="http://www.w3.org/1999/xlink" x="0px" y="0px" width="68px"
	 height="56px" viewBox="0 0 68 56" style="enable-background:new 0 0 68 56;" xml:space="preserve">
<g id="Layer_1">
</g>
<g id="bell_x5F_icon_x5F_large">
</g>
<g id="security_x5F_icon_x5F_large">
</g>
<g id="camera_x5F_icon_x5F_large">
	<g>
		<path style="fill:#666666;" d="M32.84,14.14c5.35,0,9.69,4.34,9.69,9.69c0,5.35-4.34,9.69-9.69,9.69s-9.69-4.34-9.69-9.69
			C23.15,18.48,27.49,14.14,32.84,14.14 M32.84,12.14c-6.45,0-11.69,5.24-11.69,11.69s5.24,11.69,11.69,11.69
			s11.69-5.24,11.69-11.69S39.28,12.14,32.84,12.14L32.84,12.14z"/>
	</g>
	<path style="fill:none;stroke:#666666;stroke-width:2;stroke-linecap:round;stroke-miterlimit:10;" d="M34.78,19.95
		c1.61,0,2.91,1.3,2.91,2.91"/>
	<path style="fill:none;stroke:#666666;stroke-width:2;stroke-linecap:round;stroke-miterlimit:10;" d="M41.92,43.11L49.16,49
		l-3.7,3.65c0,0-4.83-4.77-12.4-4.77h-0.24c-7.57,0-12.4,4.77-12.4,4.77L16.51,49l7.44-5.89"/>
	<g>
		<path style="fill:#666666;" d="M47.56,5C49.39,5,51,6.71,51,8.65v29.01c0,1.91-1.55,3.34-3.6,3.34H18.17
			C15.79,41,14,39.32,14,37.08V8.65C14,6.71,15.61,5,17.44,5H47.56 M47.56,3H17.44C14.45,3,12,5.66,12,8.65v28.43
			c0,3.39,2.78,5.92,6.17,5.92H47.4c3.09,0,5.6-2.25,5.6-5.34V8.65C53,5.66,50.55,3,47.56,3L47.56,3z"/>
	</g>
</g>
<g id="bridges_x5F_icon_x5F_large">
</g>
<g id="light_x5F_icon_x5F_large">
</g>
<g id="sensors_x5F_icon_x5F_large">
</g>
<g id="ac_x5F_icon_x5F_large">
</g>
<g id="fan_x5F_icon_x5F_large">
</g>
<g id="outlet_x5F_icon_x5F_large">
</g>
<g id="garage_x5F_icon_x5F_large">
</g>
<g id="humidifier_x5F_icon_x5F_large">
</g>
<g id="heating_x5F_icon_x5F_large">
</g>
<g id="locks_x5F_icon_x5F_large">
</g>
<g id="shades_x5F_icon_x5F_large">
</g>
<g id="purifiers_x5F_icon_x5F_large">
</g>
</svg>
