<?xml version="1.0" encoding="iso-8859-1"?>
<!-- Generator: Adobe Illustrator 19.2.1, SVG Export Plug-In . SVG Version: 6.00 Build 0)  -->
<svg version="1.1" xmlns="http://www.w3.org/2000/svg" xmlns:xlink="http://www.w3.org/1999/xlink" x="0px" y="0px" width="68px"
	 height="56px" viewBox="0 0 68 56" style="enable-background:new 0 0 68 56;" xml:space="preserve">
<g id="Layer_1">
</g>
<g id="bell_x5F_icon_x5F_large">
	<g>
		<path style="fill:#666666;" d="M34.25,7.47c0.43,0,0.78,0.35,0.78,0.78c0,0.43-0.35,0.78-0.78,0.78c-0.43,0-0.78-0.35-0.78-0.78
			C33.47,7.82,33.82,7.47,34.25,7.47 M34.25,5.47c-1.54,0-2.78,1.24-2.78,2.78c0,1.53,1.24,2.78,2.78,2.78
			c1.54,0,2.78-1.24,2.78-2.78C37.03,6.71,35.79,5.47,34.25,5.47L34.25,5.47z"/>
	</g>
	<path style="fill:none;stroke:#666666;stroke-width:2;stroke-linecap:round;stroke-miterlimit:10;" d="M41.2,49.44
		c0,3.93-3.19,5.56-6.95,5.56c-3.71,0-6.95-1.63-6.95-5.56"/>
	<g>
		<path style="fill:none;stroke:#666666;stroke-width:2;stroke-linecap:round;stroke-miterlimit:10;" d="M39.21,11.97
			c0.68-0.96,1.08-2.12,1.08-3.39c0-3.25-2.72-5.89-5.99-5.89c-3.26,0-6.08,2.64-6.08,5.9c0,1.24,0.39,2.43,1.05,3.38"/>
		<path style="fill:none;stroke:#666666;stroke-width:2;stroke-linecap:round;stroke-miterlimit:10;" d="M29.27,11.97
			C29.24,11.98,29.27,11.97,29.27,11.97"/>
		<path style="fill:none;stroke:#666666;stroke-width:2;stroke-linecap:round;stroke-miterlimit:10;" d="M29.27,11.97
			c-0.92,0.51-9.38,5.38-9.38,14.5c0,4.71,0,10.46,0,10.46s-0.61,4.4-1.87,4.69c-0.75,0.03-2.07,0.02-2.07,0.02
			s-0.69-0.06-0.69,0.63s-0.22,1.27-0.22,1.96s0.35,0.8,0.81,0.8c0.44,0,13.44,0,17.56,0c0.15,0,0.29,0,0.41,0
			c4.17,0,17.98,0,18.42,0c0.46,0,0.81-0.11,0.81-0.8s0.22-1.27,0.22-1.96s-0.69-0.63-0.69-0.63s-1.32,0.02-2.07-0.02
			C49.23,41.33,49,36.93,49,36.93s0-5.75,0-10.46c0-8.91-8.57-13.81-9.79-14.5"/>
	</g>
</g>
<g id="security_x5F_icon_x5F_large">
</g>
<g id="camera_x5F_icon_x5F_large">
</g>
<g id="bridges_x5F_icon_x5F_large">
</g>
<g id="light_x5F_icon_x5F_large">
</g>
<g id="sensors_x5F_icon_x5F_large">
</g>
<g id="ac_x5F_icon_x5F_large">
</g>
<g id="fan_x5F_icon_x5F_large">
</g>
<g id="outlet_x5F_icon_x5F_large">
</g>
<g id="garage_x5F_icon_x5F_large">
</g>
<g id="humidifier_x5F_icon_x5F_large">
</g>
<g id="heating_x5F_icon_x5F_large">
</g>
<g id="locks_x5F_icon_x5F_large">
</g>
<g id="shades_x5F_icon_x5F_large">
</g>
<g id="purifiers_x5F_icon_x5F_large">
</g>
</svg>
