<?xml version="1.0" encoding="iso-8859-1"?>
<!-- Generator: Adobe Illustrator 19.2.1, SVG Export Plug-In . SVG Version: 6.00 Build 0)  -->
<svg version="1.1" xmlns="http://www.w3.org/2000/svg" xmlns:xlink="http://www.w3.org/1999/xlink" x="0px" y="0px" width="68px"
	 height="56px" viewBox="0 0 68 56" style="enable-background:new 0 0 68 56;" xml:space="preserve">
<g id="Layer_1">
</g>
<g id="bell_x5F_icon_x5F_large">
</g>
<g id="security_x5F_icon_x5F_large">
</g>
<g id="camera_x5F_icon_x5F_large">
</g>
<g id="bridges_x5F_icon_x5F_large">
</g>
<g id="light_x5F_icon_x5F_large">
</g>
<g id="sensors_x5F_icon_x5F_large">
</g>
<g id="ac_x5F_icon_x5F_large">
</g>
<g id="fan_x5F_icon_x5F_large">
	<g>
		<path style="fill:#666666;" d="M34,29c0.42,0,0.77,0.24,0.93,0.63c0.21,0.51-0.04,1.09-0.56,1.3C34.25,30.98,34.13,31,34,31
			c-0.42,0-0.77-0.24-0.93-0.63c-0.13-0.33-0.05-0.62,0.01-0.76c0.06-0.14,0.21-0.4,0.55-0.54C33.75,29.02,33.87,29,34,29 M34,27
			c-0.38,0-0.76,0.07-1.12,0.22c-1.54,0.62-2.28,2.37-1.67,3.9C31.67,32.26,32.77,33,34,33c0.38,0,0.76-0.07,1.12-0.22
			c1.54-0.62,2.28-2.37,1.67-3.9C36.33,27.74,35.23,27,34,27L34,27z"/>
	</g>
	<g>
		<path style="fill:#666666;" d="M10.87,19.16c0.19,0,0.37,0.03,0.55,0.09l0.06,0.02l14.8,5.94c0.39,0.13,0.73,0.36,0.97,0.64
			c0.34,0.4,0.45,0.87,0.3,1.31l-0.54,1.66c-0.19,0.58-0.76,0.94-1.5,0.94c-0.23,0-0.46-0.04-0.69-0.11L9.29,25.83l-0.03-0.01
			c-0.48-0.15-0.87-0.51-1.09-0.97c-0.21-0.45-0.23-0.95-0.08-1.43l0.95-2.91C9.32,19.7,10.05,19.16,10.87,19.16 M10.87,17.16
			c-1.69,0-3.18,1.1-3.72,2.73L6.2,22.8c-0.31,0.96-0.26,1.98,0.16,2.89c0.45,0.97,1.28,1.72,2.29,2.04
			c0.04,0.01,0.12,0.04,0.16,0.05l15.48,3.81c0.4,0.12,0.81,0.18,1.22,0.18c1.6,0,2.94-0.91,3.4-2.32l0.54-1.65
			c0.36-1.1,0.11-2.31-0.68-3.23c-0.46-0.54-1.08-0.96-1.79-1.21l-14.75-5.92c-0.02-0.01-0.04-0.02-0.07-0.02l-0.06-0.02
			c-0.02-0.01-0.04-0.02-0.07-0.02C11.66,17.22,11.27,17.16,10.87,17.16L10.87,17.16z"/>
	</g>
	<g>
		<path style="fill:#666666;" d="M32.46,4L32.46,4l3.07,0c0.86,0,1.6,0.52,1.85,1.3c0.06,0.18,0.08,0.36,0.08,0.54l0,0.06
			l-1.15,15.79c-0.01,0.41-0.12,0.8-0.31,1.11c-0.28,0.44-0.7,0.69-1.16,0.69c0,0,0,0,0,0l-1.76,0c-0.61,0-1.14-0.43-1.36-1.12
			c-0.07-0.22-0.06-0.45-0.06-0.68L30.59,5.87V5.84c0-0.5,0.17-0.98,0.55-1.32C31.5,4.18,31.95,4,32.46,4 M32.46,2
			C32.46,2,32.46,2,32.46,2L32.46,2c-1,0-1.92,0.36-2.67,1.03c-0.78,0.7-1.2,1.7-1.2,2.81c0,0.04,0,0.12,0,0.16l1.06,15.76l0,0.04
			c0,0.28,0,0.71,0.16,1.19c0.5,1.52,1.78,2.5,3.26,2.5l1.76,0c1.15,0,2.22-0.61,2.86-1.63c0.38-0.61,0.59-1.33,0.62-2.08
			l1.14-15.74l0.01-0.08c0-0.04,0-0.08,0-0.12c0-0.4-0.06-0.79-0.18-1.17C38.76,3.08,37.25,2,35.53,2L32.46,2L32.46,2z"/>
	</g>
	<g>
		<path style="fill:#666666;" d="M28.27,35.1c0.28,0,0.54,0.08,0.76,0.24l1.42,1.02c0.66,0.48,0.71,1.49,0.12,2.32l-8.46,13.45
			l-0.02,0.02c-0.34,0.47-0.89,0.74-1.49,0.74c-0.42,0-0.83-0.13-1.17-0.38l-2.5-1.8c-0.41-0.29-0.69-0.72-0.78-1.2
			c-0.1-0.5,0.01-1.02,0.3-1.42l0.04-0.05l10.28-12.11C27.16,35.41,27.72,35.1,28.27,35.1 M28.27,33.1c-1.15,0-2.29,0.59-3.06,1.58
			L14.96,46.75c-0.01,0.02-0.03,0.03-0.04,0.05l-0.04,0.05c-0.02,0.02-0.03,0.04-0.05,0.06c-0.63,0.86-0.86,1.95-0.65,3
			c0.2,0.97,0.76,1.83,1.58,2.42l2.5,1.8c0.69,0.5,1.5,0.76,2.34,0.76c1.25,0,2.38-0.57,3.1-1.55c0.03-0.04,0.07-0.1,0.1-0.14
			l8.44-13.41c1.19-1.73,0.93-3.93-0.62-5.05l-1.42-1.02C29.64,33.31,28.97,33.1,28.27,33.1L28.27,33.1z"/>
	</g>
	<g>
		<path style="fill:#666666;" d="M39.52,35.21c0.55,0,1.11,0.31,1.51,0.84l10.3,12.13l0.02,0.02c0.6,0.82,0.38,1.99-0.48,2.62
			l-2.5,1.8C48.01,52.87,47.6,53,47.18,53c-0.6,0-1.15-0.27-1.49-0.74l-0.03-0.05l-8.45-13.42c-0.24-0.33-0.38-0.72-0.41-1.08
			c-0.04-0.52,0.16-0.97,0.53-1.24l1.42-1.02C38.97,35.29,39.24,35.21,39.52,35.21 M39.52,33.21c-0.7,0-1.37,0.21-1.93,0.62
			l-1.42,1.02c-0.94,0.68-1.45,1.8-1.36,3.01c0.05,0.71,0.31,1.42,0.74,2.04l8.42,13.38c0.01,0.02,0.03,0.04,0.04,0.06l0.03,0.05
			c0.01,0.02,0.03,0.04,0.04,0.06c0.72,0.99,1.85,1.55,3.1,1.55c0.84,0,1.65-0.26,2.34-0.76l2.5-1.8c0.87-0.63,1.44-1.55,1.61-2.59
			c0.16-1.01-0.08-2.01-0.68-2.83c-0.03-0.04-0.08-0.1-0.11-0.14L42.58,34.79C41.81,33.8,40.67,33.21,39.52,33.21L39.52,33.21z"/>
	</g>
	<g>
		<path style="fill:#666666;" d="M57.13,19.34c0.82,0,1.55,0.54,1.82,1.35l0.95,2.91c0.16,0.48,0.13,0.98-0.08,1.43
			c-0.21,0.46-0.61,0.82-1.09,0.97l-0.06,0.02l-15.5,3.81c-0.23,0.07-0.46,0.11-0.69,0.11c-0.73,0-1.31-0.36-1.5-0.94l-0.54-1.66
			c-0.14-0.44-0.03-0.92,0.3-1.31c0.24-0.28,0.58-0.51,0.97-0.64l14.83-5.95l0.03-0.01C56.76,19.37,56.94,19.34,57.13,19.34
			 M57.13,17.34c-0.39,0-0.78,0.06-1.16,0.18c-0.05,0.01-0.12,0.04-0.16,0.06l-14.78,5.94c-0.71,0.25-1.33,0.67-1.79,1.21
			c-0.79,0.92-1.04,2.13-0.68,3.23l0.54,1.65c0.46,1.41,1.79,2.32,3.4,2.32c0.41,0,0.82-0.06,1.22-0.18l15.45-3.8
			c0.02-0.01,0.04-0.01,0.06-0.02l0.06-0.02c0.02-0.01,0.05-0.01,0.07-0.02c1.01-0.32,1.84-1.07,2.29-2.04
			c0.42-0.91,0.47-1.93,0.16-2.89l-0.95-2.91C60.31,18.44,58.82,17.34,57.13,17.34L57.13,17.34z"/>
	</g>
</g>
<g id="outlet_x5F_icon_x5F_large">
</g>
<g id="garage_x5F_icon_x5F_large">
</g>
<g id="humidifier_x5F_icon_x5F_large">
</g>
<g id="heating_x5F_icon_x5F_large">
</g>
<g id="locks_x5F_icon_x5F_large">
</g>
<g id="shades_x5F_icon_x5F_large">
</g>
<g id="purifiers_x5F_icon_x5F_large">
</g>
</svg>
