<?xml version="1.0" encoding="iso-8859-1"?>
<!-- Generator: Adobe Illustrator 19.2.1, SVG Export Plug-In . SVG Version: 6.00 Build 0)  -->
<svg version="1.1" xmlns="http://www.w3.org/2000/svg" xmlns:xlink="http://www.w3.org/1999/xlink" x="0px" y="0px" width="68px"
	 height="56px" viewBox="0 0 68 56" style="enable-background:new 0 0 68 56;" xml:space="preserve">
<g id="Layer_1">
</g>
<g id="bell_x5F_icon_x5F_large">
</g>
<g id="security_x5F_icon_x5F_large">
</g>
<g id="camera_x5F_icon_x5F_large">
</g>
<g id="bridges_x5F_icon_x5F_large">
</g>
<g id="light_x5F_icon_x5F_large">
	<rect x="8" y="21" style="fill:#666666;" width="2" height="30"/>
	<rect x="33" y="24" transform="matrix(7.730687e-11 1 -1 7.730687e-11 84 16)" style="fill:#666666;" width="2" height="52"/>
	<rect x="58" y="21" style="fill:#666666;" width="2" height="30"/>
</g>
<g id="sensors_x5F_icon_x5F_large">
</g>
<g id="ac_x5F_icon_x5F_large">
</g>
<g id="fan_x5F_icon_x5F_large">
</g>
<g id="outlet_x5F_icon_x5F_large">
</g>
<g id="garage_x5F_icon_x5F_large">
	
		<line style="fill:none;stroke:#666666;stroke-width:2;stroke-linecap:round;stroke-linejoin:round;stroke-miterlimit:10;" x1="6.11" y1="21.87" x2="34" y2="6.13"/>
	
		<line style="fill:none;stroke:#666666;stroke-width:2;stroke-linecap:round;stroke-linejoin:round;stroke-miterlimit:10;" x1="61.89" y1="21.87" x2="34" y2="6.13"/>
	<rect x="14.5" y="32" style="fill:#666666;" width="39" height="1"/>
	<rect x="14.5" y="38" style="fill:#666666;" width="39" height="1"/>
	<rect x="14" y="26" style="fill:#666666;" width="2" height="19"/>
	<rect x="52" y="26" style="fill:#666666;" width="2" height="19"/>
	<rect x="33" y="6" transform="matrix(9.367777e-11 1 -1 9.367777e-11 60 -8)" style="fill:#666666;" width="2" height="40"/>
	<rect x="33" y="24" transform="matrix(9.367777e-11 1 -1 9.367777e-11 78 10)" style="fill:#666666;" width="2" height="40"/>
	<rect x="15" y="31" style="fill:#666666;" width="38" height="2"/>
	<rect x="15" y="37" style="fill:#666666;" width="38" height="2"/>
</g>
<g id="humidifier_x5F_icon_x5F_large">
</g>
<g id="heating_x5F_icon_x5F_large">
</g>
<g id="locks_x5F_icon_x5F_large">
</g>
<g id="shades_x5F_icon_x5F_large">
</g>
<g id="purifiers_x5F_icon_x5F_large">
</g>
</svg>
