<?xml version="1.0" encoding="iso-8859-1"?>
<!-- Generator: Adobe Illustrator 19.2.1, SVG Export Plug-In . SVG Version: 6.00 Build 0)  -->
<svg version="1.1" xmlns="http://www.w3.org/2000/svg" xmlns:xlink="http://www.w3.org/1999/xlink" x="0px" y="0px" width="68px"
	 height="56px" viewBox="0 0 68 56" style="enable-background:new 0 0 68 56;" xml:space="preserve">
<g id="Layer_1">
</g>
<g id="bell_x5F_icon_x5F_large">
</g>
<g id="security_x5F_icon_x5F_large">
</g>
<g id="camera_x5F_icon_x5F_large">
</g>
<g id="bridges_x5F_icon_x5F_large">
</g>
<g id="light_x5F_icon_x5F_large">
</g>
<g id="sensors_x5F_icon_x5F_large">
</g>
<g id="ac_x5F_icon_x5F_large">
</g>
<g id="fan_x5F_icon_x5F_large">
</g>
<g id="outlet_x5F_icon_x5F_large">
</g>
<g id="garage_x5F_icon_x5F_large">
</g>
<g id="humidifier_x5F_icon_x5F_large">
	<g>
		<g>
			<path style="fill:#666666;" d="M34.12,5.99L34.12,5.99L34.12,5.99 M33.98,6.03c2.85,1.01,17.01,14.95,17.01,27.19
				C50.99,44.67,41.06,50,34.34,50h-0.7c-6.71,0-16.65-5.33-16.65-16.79C16.99,20.98,31.14,7.04,33.98,6.03 M33.98,4
				c-3.24,0-18.99,15.85-18.99,29.21C14.99,46.03,26.12,52,33.64,52h0.7c7.52,0,18.65-5.97,18.65-18.79C52.99,19.85,37.22,4,33.98,4
				L33.98,4z"/>
		</g>
		<path style="fill:none;stroke:#666666;stroke-width:2;stroke-linecap:round;stroke-linejoin:round;stroke-miterlimit:10;" d="
			M20.62,34.54c0,0,1.4,9.27,10.85,11.48"/>
	</g>
</g>
<g id="heating_x5F_icon_x5F_large">
</g>
<g id="locks_x5F_icon_x5F_large">
</g>
<g id="shades_x5F_icon_x5F_large">
</g>
<g id="purifiers_x5F_icon_x5F_large">
</g>
</svg>
