<?xml version="1.0" encoding="iso-8859-1"?>
<!-- Generator: Adobe Illustrator 19.2.1, SVG Export Plug-In . SVG Version: 6.00 Build 0)  -->
<svg version="1.1" xmlns="http://www.w3.org/2000/svg" xmlns:xlink="http://www.w3.org/1999/xlink" x="0px" y="0px" width="68px"
	 height="56px" viewBox="0 0 68 56" style="enable-background:new 0 0 68 56;" xml:space="preserve">
<g id="Layer_1">
</g>
<g id="bell_x5F_icon_x5F_large">
</g>
<g id="security_x5F_icon_x5F_large">
</g>
<g id="camera_x5F_icon_x5F_large">
</g>
<g id="bridges_x5F_icon_x5F_large">
</g>
<g id="light_x5F_icon_x5F_large">
	<g>
		<g>
			<path style="fill:none;stroke:#666666;stroke-width:2;stroke-linecap:square;stroke-miterlimit:10;" d="M40.56,39.59
				c-0.02-6.55,3.76-10.37,3.76-10.37c2.91-2.99,5.66-7.11,5.66-11.67c0-4.56-1.8-8.7-4.71-11.69C42.34,2.86,38.32,1,33.88,1h0.19
				c-4.44,0-8.47,1.86-11.38,4.85c-2.91,2.99-4.71,7.12-4.71,11.68c0,4.56,2.74,8.69,5.65,11.68c0,0,3.78,3.83,3.76,10.38"/>
		</g>
		<rect x="27" y="44" style="fill:#666666;" width="14" height="2"/>
		<rect x="27" y="49" style="fill:#666666;" width="14" height="2"/>
		<rect x="30" y="54" style="fill:#666666;" width="8" height="2"/>
	</g>
</g>
<g id="sensors_x5F_icon_x5F_large">
</g>
<g id="ac_x5F_icon_x5F_large">
</g>
<g id="fan_x5F_icon_x5F_large">
</g>
<g id="outlet_x5F_icon_x5F_large">
</g>
<g id="garage_x5F_icon_x5F_large">
</g>
<g id="humidifier_x5F_icon_x5F_large">
</g>
<g id="heating_x5F_icon_x5F_large">
</g>
<g id="locks_x5F_icon_x5F_large">
</g>
<g id="shades_x5F_icon_x5F_large">
</g>
<g id="purifiers_x5F_icon_x5F_large">
</g>
</svg>
