<?xml version="1.0" encoding="iso-8859-1"?>
<!-- Generator: Adobe Illustrator 19.2.1, SVG Export Plug-In . SVG Version: 6.00 Build 0)  -->
<svg version="1.1" xmlns="http://www.w3.org/2000/svg" xmlns:xlink="http://www.w3.org/1999/xlink" x="0px" y="0px" width="68px"
	 height="56px" viewBox="0 0 68 56" style="enable-background:new 0 0 68 56;" xml:space="preserve">
<g id="Layer_1">
</g>
<g id="bell_x5F_icon_x5F_large">
</g>
<g id="security_x5F_icon_x5F_large">
</g>
<g id="camera_x5F_icon_x5F_large">
</g>
<g id="bridges_x5F_icon_x5F_large">
</g>
<g id="light_x5F_icon_x5F_large">
</g>
<g id="sensors_x5F_icon_x5F_large">
</g>
<g id="ac_x5F_icon_x5F_large">
</g>
<g id="fan_x5F_icon_x5F_large">
</g>
<g id="outlet_x5F_icon_x5F_large">
	<g>
		<path style="fill:#666666;" d="M34,33.01c1.18,0,2,1.47,2,2.73V38h-4v-2.26C32,34.47,32.82,33.01,34,33.01 M34,31.01
			c-2.39,0-4,2.45-4,4.73V38c0,1.1,0.9,2,2,2h4c1.1,0,2-0.9,2-2v-2.26C38,33.45,36.39,31.01,34,31.01L34,31.01z"/>
	</g>
	<g>
		<path style="fill:#666666;" d="M28,19v6h-3v-6H28 M28,17h-3c-1.1,0-2,0.9-2,2v6c0,1.1,0.9,2,2,2h3c1.1,0,2-0.9,2-2v-6
			C30,17.9,29.1,17,28,17L28,17z"/>
	</g>
	<g>
		<path style="fill:#666666;" d="M43,19v6h-3v-6H43 M43,17h-3c-1.1,0-2,0.9-2,2v6c0,1.1,0.9,2,2,2h3c1.1,0,2-0.9,2-2v-6
			C45,17.9,44.1,17,43,17L43,17z"/>
	</g>
	<g>
		<path style="fill:#666666;" d="M46,10c3.31,0,6,2.69,6,6v24c0,3.31-2.69,6-6,6H22c-3.31,0-6-2.69-6-6V16c0-3.31,2.69-6,6-6H46
			 M46,8H22c-4.4,0-8,3.6-8,8v24c0,4.4,3.6,8,8,8h24c4.4,0,8-3.6,8-8V16C54,11.6,50.4,8,46,8L46,8z"/>
	</g>
</g>
<g id="garage_x5F_icon_x5F_large">
</g>
<g id="humidifier_x5F_icon_x5F_large">
</g>
<g id="heating_x5F_icon_x5F_large">
</g>
<g id="locks_x5F_icon_x5F_large">
</g>
<g id="shades_x5F_icon_x5F_large">
</g>
<g id="purifiers_x5F_icon_x5F_large">
</g>
</svg>
