<?xml version="1.0" encoding="iso-8859-1"?>
<!-- Generator: Adobe Illustrator 19.2.1, SVG Export Plug-In . SVG Version: 6.00 Build 0)  -->
<svg version="1.1" xmlns="http://www.w3.org/2000/svg" xmlns:xlink="http://www.w3.org/1999/xlink" x="0px" y="0px" width="68px"
	 height="56px" viewBox="0 0 68 56" style="enable-background:new 0 0 68 56;" xml:space="preserve">
<g id="Layer_1">
</g>
<g id="bell_x5F_icon_x5F_large">
</g>
<g id="security_x5F_icon_x5F_large">
	<g style="opacity:0.95;">
		<path style="fill:#666666;" d="M34.48,2.65L34.48,2.65L34.48,2.65 M33.68,3.42C39.31,8.47,48.29,9.37,51,9.53v22.71
			c0,7-2.99,12.66-8.9,16.83c-3.74,2.64-7.49,3.67-8.42,3.9c-0.94-0.23-4.69-1.26-8.42-3.9C21.49,46.41,17,41.33,17,32.24V9.51
			C19.99,9.29,28.29,8.27,33.68,3.42 M33.68,1c-0.24,0-0.47,0.09-0.64,0.26C27.17,7.33,16,7.56,15.88,7.56
			C15.39,7.56,15,7.95,15,8.43v23.81c0,9.76,4.81,15.43,9.11,18.47c4.63,3.27,9.2,4.24,9.39,4.27c0.06,0.01,0.12,0.02,0.18,0.02
			s0.12-0.01,0.18-0.02c0.19-0.04,4.77-1,9.39-4.27C47.55,47.67,53,42,53,32.24V8.43c0-0.48-0.71-0.87-1.2-0.87
			c-0.12,0-11.61-0.23-17.48-6.31C34.15,1.09,33.92,1,33.68,1L33.68,1z"/>
	</g>
	<g style="opacity:0.95;">
		<path style="fill:#666666;" d="M43.78,12.87c0.81,0.26,1.92,0.59,2.98,0.81v3.41L22.84,39.52c-0.7-1.31-1.2-3.07-1.46-4.48
			L43.78,12.87 M43.25,10.57L19.24,34.35c0,0,0.74,5.93,3.38,8.12l26.14-24.52v-6.02C46.89,11.9,43.25,10.57,43.25,10.57
			L43.25,10.57z"/>
	</g>
</g>
<g id="camera_x5F_icon_x5F_large">
</g>
<g id="bridges_x5F_icon_x5F_large">
</g>
<g id="light_x5F_icon_x5F_large">
</g>
<g id="sensors_x5F_icon_x5F_large">
</g>
<g id="ac_x5F_icon_x5F_large">
</g>
<g id="fan_x5F_icon_x5F_large">
</g>
<g id="outlet_x5F_icon_x5F_large">
</g>
<g id="garage_x5F_icon_x5F_large">
</g>
<g id="humidifier_x5F_icon_x5F_large">
</g>
<g id="heating_x5F_icon_x5F_large">
</g>
<g id="locks_x5F_icon_x5F_large">
</g>
<g id="shades_x5F_icon_x5F_large">
</g>
<g id="purifiers_x5F_icon_x5F_large">
</g>
</svg>
