<?xml version="1.0" encoding="iso-8859-1"?>
<!-- Generator: Adobe Illustrator 19.2.1, SVG Export Plug-In . SVG Version: 6.00 Build 0)  -->
<svg version="1.1" xmlns="http://www.w3.org/2000/svg" xmlns:xlink="http://www.w3.org/1999/xlink" x="0px" y="0px" width="68px"
	 height="56px" viewBox="0 0 68 56" style="enable-background:new 0 0 68 56;" xml:space="preserve">
<g id="Layer_1">
</g>
<g id="bell_x5F_icon_x5F_large">
</g>
<g id="security_x5F_icon_x5F_large">
</g>
<g id="camera_x5F_icon_x5F_large">
</g>
<g id="bridges_x5F_icon_x5F_large">
</g>
<g id="light_x5F_icon_x5F_large">
</g>
<g id="sensors_x5F_icon_x5F_large">
	<g>
		<path style="fill:#666666;" d="M34.21,25.74c1.32,0,2.39,1.01,2.39,2.26c0,1.24-1.07,2.26-2.39,2.26c-1.32,0-2.39-1.01-2.39-2.26
			C31.82,26.76,32.89,25.74,34.21,25.74 M34.21,23.74c-2.43,0-4.39,1.9-4.39,4.26c0,2.35,1.97,4.26,4.39,4.26s4.39-1.91,4.39-4.26
			C38.61,25.65,36.64,23.74,34.21,23.74L34.21,23.74z"/>
	</g>
	<path style="fill:none;stroke:#666666;stroke-width:2;stroke-linecap:round;stroke-miterlimit:10;" d="M42.12,19.91
		c2.17,2.07,3.52,4.93,3.52,8.09c0,3.16-1.34,6.01-3.51,8.08"/>
	<path style="fill:none;stroke:#666666;stroke-width:2;stroke-linecap:round;stroke-miterlimit:10;" d="M48.27,13.96
		c3.8,3.59,6.15,8.56,6.15,14.04c0,5.48-2.35,10.45-6.15,14.04"/>
	<path style="fill:none;stroke:#666666;stroke-width:2;stroke-linecap:round;stroke-miterlimit:10;" d="M54.43,8
		c5.43,5.12,8.79,12.19,8.79,20c0,7.81-3.36,14.88-8.79,20"/>
	<path style="fill:none;stroke:#666666;stroke-width:2;stroke-linecap:round;stroke-miterlimit:10;" d="M26.3,36.08
		c-2.17-2.07-3.52-4.93-3.52-8.09c0-3.16,1.34-6.01,3.51-8.08"/>
	<path style="fill:none;stroke:#666666;stroke-width:2;stroke-linecap:round;stroke-miterlimit:10;" d="M20.19,42.04
		c-3.8-3.59-6.15-8.56-6.15-14.04c0-5.48,2.35-10.45,6.15-14.04"/>
	<path style="fill:none;stroke:#666666;stroke-width:2;stroke-linecap:round;stroke-miterlimit:10;" d="M14,48
		c-5.43-5.12-8.79-12.19-8.79-20c0-7.81,3.36-14.88,8.79-20"/>
</g>
<g id="ac_x5F_icon_x5F_large">
</g>
<g id="fan_x5F_icon_x5F_large">
</g>
<g id="outlet_x5F_icon_x5F_large">
</g>
<g id="garage_x5F_icon_x5F_large">
</g>
<g id="humidifier_x5F_icon_x5F_large">
</g>
<g id="heating_x5F_icon_x5F_large">
</g>
<g id="locks_x5F_icon_x5F_large">
</g>
<g id="shades_x5F_icon_x5F_large">
</g>
<g id="purifiers_x5F_icon_x5F_large">
</g>
</svg>
