<?xml version="1.0" encoding="utf-8"?>
<!-- Generator: Adobe Illustrator 21.1.0, SVG Export Plug-In . SVG Version: 6.00 Build 0)  -->
<svg version="1.1" xmlns="http://www.w3.org/2000/svg" xmlns:xlink="http://www.w3.org/1999/xlink" x="0px" y="0px" width="74px"
	 height="56px" viewBox="0 0 74 56" style="enable-background:new 0 0 74 56;" xml:space="preserve">
<g id="Layer_1">
</g>
<g id="bell_x5F_icon_x5F_large">
</g>
<g id="security_x5F_icon_x5F_large">
</g>
<g id="camera_x5F_icon_x5F_large">
</g>
<g id="bridges_x5F_icon_x5F_large">
</g>
<g id="light_x5F_icon_x5F_large">
</g>
<g id="sensors_x5F_icon_x5F_large">
</g>
<g id="ac_x5F_icon_x5F_large">
</g>
<g id="fan_x5F_icon_x5F_large">
</g>
<g id="outlet_x5F_icon_x5F_large">
</g>
<g id="garage_x5F_icon_x5F_large">
</g>
<g id="humidifier_x5F_icon_x5F_large">
</g>
<g id="heating_x5F_icon_x5F_large">
</g>
<g id="locks_x5F_icon_x5F_large">
</g>
<g id="shades_x5F_icon_x5F_large">
</g>
<g id="purifiers_x5F_icon_x5F_large">
</g>
<g id="sprinklers_x5F_icon_x5F_large">
</g>
<g id="shower_x5F_controllers_x5F_icon_x5F_large">
	<path style="fill:#666666;" d="M69.63,50.79c-2.01,0-3.64-1.63-3.64-3.64s1.63-3.64,3.64-3.64s3.64,1.63,3.64,3.64
		S71.64,50.79,69.63,50.79z M69.63,44.51c-1.46,0-2.64,1.18-2.64,2.64s1.18,2.64,2.64,2.64s2.64-1.18,2.64-2.64
		S71.08,44.51,69.63,44.51z M0.5,47.15c0-1.73,1.41-3.14,3.14-3.14s3.14,1.41,3.14,3.14s-1.41,3.14-3.14,3.14S0.5,48.89,0.5,47.15z
		 M5.97,28.73l-1.88-0.57c-0.98,3.21-1.47,6.55-1.47,9.94h1.96C4.58,34.9,5.05,31.75,5.97,28.73z M70.65,37.87
		c-0.02-3.38-0.54-6.72-1.54-9.93l-1.87,0.58c0.94,3.02,1.43,6.17,1.45,9.36L70.65,37.87z M11.15,18.63l-1.56-1.19
		c-2.05,2.69-3.68,5.65-4.85,8.8l1.84,0.68C7.68,23.95,9.22,21.16,11.15,18.63z M68.64,26.04c-1.19-3.15-2.84-6.1-4.91-8.77
		l-1.55,1.2c1.95,2.52,3.5,5.3,4.63,8.26L68.64,26.04z M19.51,10.96L18.46,9.3c-2.84,1.81-5.4,4.02-7.6,6.57l1.49,1.28
		C14.42,14.74,16.83,12.66,19.51,10.96z M62.45,15.71c-2.21-2.54-4.79-4.74-7.64-6.53l-1.04,1.66c2.69,1.69,5.12,3.76,7.2,6.15
		L62.45,15.71z M30.02,6.67l-0.41-1.92c-3.3,0.7-6.46,1.89-9.41,3.52l0.95,1.71C23.93,8.44,26.91,7.33,30.02,6.67z M53.07,8.17
		c-2.96-1.62-6.14-2.78-9.44-3.46l-0.39,1.92c3.11,0.64,6.1,1.74,8.89,3.26L53.07,8.17z M41.36,6.3l0.28-1.94
		c-3.31-0.48-6.75-0.47-10.05,0.03l0.29,1.94C35,5.86,38.25,5.85,41.36,6.3z M50.48,38.17c0,7.64-6.2,13.83-13.84,13.83
		c-7.64,0-13.84-6.19-13.84-13.83c0-6.06,3.91-11.2,9.34-13.07V9.67h9V25.1C46.57,26.97,50.48,32.11,50.48,38.17z M34.14,24.57
		c0.81-0.15,1.64-0.24,2.5-0.24c0.86,0,1.69,0.09,2.51,0.24v-12.9h-5V24.57z M48.48,38.17c0-6.52-5.31-11.83-11.84-11.83
		S24.8,31.64,24.8,38.17S30.11,50,36.64,50S48.48,44.69,48.48,38.17z"/>
	<rect y="7" style="fill:none;" width="74" height="49"/>
</g>
</svg>
