<?xml version="1.0" encoding="utf-8"?>
<!-- Generator: Adobe Illustrator 20.1.0, SVG Export Plug-In . SVG Version: 6.00 Build 0)  -->
<svg version="1.1" xmlns="http://www.w3.org/2000/svg" xmlns:xlink="http://www.w3.org/1999/xlink" x="0px" y="0px" width="68px"
	 height="56px" viewBox="0 0 68 56" enable-background="new 0 0 68 56" xml:space="preserve">
<g id="Layer_1">
</g>
<g id="bell_x5F_icon_x5F_large">
</g>
<g id="security_x5F_icon_x5F_large">
</g>
<g id="camera_x5F_icon_x5F_large">
</g>
<g id="bridges_x5F_icon_x5F_large">
</g>
<g id="light_x5F_icon_x5F_large">
</g>
<g id="sensors_x5F_icon_x5F_large">
</g>
<g id="ac_x5F_icon_x5F_large">
</g>
<g id="fan_x5F_icon_x5F_large">
</g>
<g id="outlet_x5F_icon_x5F_large">
</g>
<g id="garage_x5F_icon_x5F_large">
</g>
<g id="humidifier_x5F_icon_x5F_large">
</g>
<g id="heating_x5F_icon_x5F_large">
</g>
<g id="locks_x5F_icon_x5F_large">
</g>
<g id="shades_x5F_icon_x5F_large">
	<path class="siri" fill="#666666" d="M34,9.72c2.21,0,4,1.79,4,4s-1.79,4-4,4s-4-1.79-4-4S31.79,9.72,34,9.72 M34,7.72c-3.31,0-6,2.69-6,6
		c0,3.31,2.69,6,6,6s6-2.69,6-6C40,10.4,37.31,7.72,34,7.72L34,7.72z M34,26.5c5.58,0,10.12,4.54,10.12,10.12S39.58,46.75,34,46.75
		s-10.12-4.54-10.12-10.12S28.42,26.5,34,26.5 M34,24.5c-6.7,0-12.12,5.43-12.12,12.12c0,6.7,5.43,12.12,12.12,12.12
		c6.7,0,12.12-5.43,12.12-12.12C46.12,29.93,40.7,24.5,34,24.5L34,24.5z M34,32.9c2.05,0,3.72,1.67,3.72,3.72s-1.67,3.72-3.72,3.72
		s-3.72-1.67-3.72-3.72S31.95,32.9,34,32.9 M34,30.9c-3.16,0-5.72,2.56-5.72,5.72c0,3.16,2.56,5.72,5.72,5.72
		c3.16,0,5.72-2.56,5.72-5.72C39.72,33.46,37.16,30.9,34,30.9L34,30.9z M47,3c2.21,0,4,1.79,4,4v42c0,2.21-1.79,4-4,4H21
		c-2.21,0-4-1.79-4-4V7c0-2.21,1.79-4,4-4H47 M47,1H21c-3.3,0-6,2.7-6,6v42c0,3.3,2.7,6,6,6h26c3.3,0,6-2.7,6-6V7
		C53,3.7,50.3,1,47,1L47,1z"/>
</g>
<g id="purifiers_x5F_icon_x5F_large">
</g>
</svg>
