<?xml version="1.0" encoding="utf-8"?>
<!-- Generator: Adobe Illustrator 21.1.0, SVG Export Plug-In . SVG Version: 6.00 Build 0)  -->
<svg version="1.1" xmlns="http://www.w3.org/2000/svg" xmlns:xlink="http://www.w3.org/1999/xlink" x="0px" y="0px" width="102px"
	 height="56px" viewBox="0 0 102 56" style="enable-background:new 0 0 102 56;" xml:space="preserve">
<g id="Layer_1">
</g>
<g id="bell_x5F_icon_x5F_large">
</g>
<g id="security_x5F_icon_x5F_large">
</g>
<g id="camera_x5F_icon_x5F_large">
</g>
<g id="bridges_x5F_icon_x5F_large">
</g>
<g id="light_x5F_icon_x5F_large">
</g>
<g id="sensors_x5F_icon_x5F_large">
</g>
<g id="ac_x5F_icon_x5F_large">
</g>
<g id="fan_x5F_icon_x5F_large">
</g>
<g id="outlet_x5F_icon_x5F_large">
</g>
<g id="garage_x5F_icon_x5F_large">
</g>
<g id="humidifier_x5F_icon_x5F_large">
</g>
<g id="heating_x5F_icon_x5F_large">
</g>
<g id="locks_x5F_icon_x5F_large">
</g>
<g id="shades_x5F_icon_x5F_large">
</g>
<g id="purifiers_x5F_icon_x5F_large">
</g>
<g id="sprinklers_x5F_icon_x5F_large">
	<path style="fill:#666666;" d="M68.62,36.13c-0.14,0-0.28-0.03-0.41-0.09c-0.5-0.23-0.73-0.82-0.5-1.32
		c1.75-3.91,4.87-8.36,8.34-11.89c0.39-0.4,1.02-0.4,1.41-0.01c0.39,0.39,0.4,1.02,0.01,1.41c-3.31,3.37-6.28,7.6-7.94,11.31
		C69.37,35.91,69.01,36.13,68.62,36.13z M83.66,18.4c0.88-0.87,2.06-1.89,3.41-2.95c0.43-0.34,0.51-0.97,0.16-1.4
		c-0.34-0.43-0.97-0.51-1.4-0.16c-1.4,1.11-2.63,2.18-3.57,3.1c-0.39,0.39-0.4,1.02-0.01,1.41c0.2,0.2,0.45,0.3,0.71,0.3
		C83.21,18.69,83.47,18.59,83.66,18.4z M97.45,8.85c0.93-0.38,1.89-0.76,2.89-1.12c0.52-0.19,0.79-0.76,0.6-1.28
		c-0.19-0.52-0.77-0.79-1.28-0.6c-1.02,0.38-2.01,0.76-2.96,1.15c-0.51,0.21-0.75,0.79-0.54,1.31c0.16,0.39,0.53,0.62,0.92,0.62
		C97.2,8.93,97.33,8.91,97.45,8.85z M34.08,36.05c0.5-0.23,0.73-0.82,0.5-1.32c-1.75-3.91-4.87-8.36-8.34-11.89
		c-0.39-0.4-1.02-0.4-1.41-0.01c-0.39,0.39-0.4,1.02-0.01,1.41c3.31,3.37,6.28,7.6,7.94,11.31c0.17,0.37,0.53,0.59,0.91,0.59
		C33.81,36.13,33.95,36.11,34.08,36.05z M20.86,18.39c0.39-0.39,0.38-1.03-0.01-1.41c-0.93-0.92-2.17-1.99-3.57-3.1
		c-0.43-0.34-1.06-0.27-1.4,0.16c-0.34,0.43-0.27,1.06,0.16,1.4c1.34,1.06,2.52,2.08,3.41,2.95c0.19,0.19,0.45,0.29,0.7,0.29
		C20.41,18.69,20.66,18.59,20.86,18.39z M6.08,8.31c0.21-0.51-0.03-1.1-0.54-1.31C4.59,6.61,3.6,6.23,2.58,5.85
		C2.06,5.66,1.48,5.93,1.29,6.45C1.1,6.97,1.37,7.54,1.89,7.73c1,0.37,1.96,0.74,2.89,1.12C4.9,8.91,5.03,8.93,5.16,8.93
		C5.55,8.93,5.92,8.7,6.08,8.31z M36.42,9.36c0.42-0.35,0.48-0.99,0.12-1.41c-1.13-1.35-2.31-2.63-3.49-3.79
		c-0.39-0.39-1.03-0.38-1.41,0.01c-0.39,0.39-0.38,1.03,0.01,1.41c1.14,1.12,2.27,2.35,3.36,3.65c0.2,0.24,0.48,0.36,0.77,0.36
		C36,9.6,36.23,9.52,36.42,9.36z M45.97,24.96c0.5-0.24,0.71-0.83,0.48-1.33c-1.24-2.62-2.65-5.21-4.18-7.69
		c-0.29-0.47-0.91-0.62-1.38-0.33c-0.47,0.29-0.62,0.91-0.33,1.38c1.49,2.42,2.86,4.94,4.07,7.49c0.17,0.36,0.53,0.57,0.9,0.57
		C45.68,25.06,45.83,25.02,45.97,24.96z M69.17,9.24c1.09-1.3,2.22-2.53,3.36-3.65c0.39-0.39,0.4-1.02,0.01-1.41
		c-0.39-0.39-1.02-0.4-1.41-0.01c-1.18,1.16-2.36,2.44-3.49,3.79c-0.35,0.42-0.3,1.05,0.12,1.41c0.19,0.16,0.42,0.23,0.64,0.23
		C68.69,9.6,68.97,9.48,69.17,9.24z M57.87,27.25c0.02-0.05,1.91-4.97,5.56-10.88c0.29-0.47,0.14-1.09-0.33-1.38
		c-0.47-0.29-1.09-0.14-1.38,0.33c-3.75,6.08-5.64,11.01-5.72,11.22c-0.2,0.52,0.06,1.09,0.58,1.29c0.12,0.04,0.24,0.07,0.36,0.07
		C57.34,27.89,57.72,27.64,57.87,27.25z M51.77,43.38l7.64-6.69c0.31-0.27,0.42-0.71,0.28-1.1s-0.52-0.65-0.94-0.65H43.47
		c-0.42,0-0.79,0.26-0.94,0.65s-0.04,0.83,0.28,1.1l7.64,6.69c0.19,0.17,0.42,0.25,0.66,0.25S51.59,43.54,51.77,43.38z M56.1,36.94
		l-4.98,4.36l-4.98-4.36H56.1z M52.12,50v-6.87c0-0.55-0.45-1-1-1s-1,0.45-1,1V50c0,0.55,0.45,1,1,1S52.12,50.55,52.12,50z"/>
	<rect x="-0.08" y="4" style="fill:none;" width="101" height="48"/>
</g>
<g id="shower_x5F_controllers_x5F_icon_x5F_large">
</g>
</svg>
