<?xml version="1.0" encoding="iso-8859-1"?>
<!-- Generator: Adobe Illustrator 19.2.1, SVG Export Plug-In . SVG Version: 6.00 Build 0)  -->
<svg version="1.1" xmlns="http://www.w3.org/2000/svg" xmlns:xlink="http://www.w3.org/1999/xlink" x="0px" y="0px" width="68px"
	 height="56px" viewBox="0 0 68 56" style="enable-background:new 0 0 68 56;" xml:space="preserve">
<g id="Layer_1">
</g>
<g id="bell_x5F_icon_x5F_large">
</g>
<g id="security_x5F_icon_x5F_large">
</g>
<g id="camera_x5F_icon_x5F_large">
</g>
<g id="bridges_x5F_icon_x5F_large">
</g>
<g id="light_x5F_icon_x5F_large">
</g>
<g id="sensors_x5F_icon_x5F_large">
</g>
<g id="ac_x5F_icon_x5F_large">
</g>
<g id="fan_x5F_icon_x5F_large">
</g>
<g id="outlet_x5F_icon_x5F_large">
</g>
<g id="garage_x5F_icon_x5F_large">
</g>
<g id="humidifier_x5F_icon_x5F_large">
</g>
<g id="heating_x5F_icon_x5F_large">
</g>
<g id="locks_x5F_icon_x5F_large">
</g>
<g id="shades_x5F_icon_x5F_large">
	<g>
		<path style="fill:#666666;" d="M48,4c1.1,0,2,0.9,2,2v44c0,1.1-0.9,2-2,2H20c-1.1,0-2-0.9-2-2V6c0-1.1,0.9-2,2-2H48 M48,2H20
			c-2.21,0-4,1.79-4,4v44c0,2.21,1.79,4,4,4h28c2.21,0,4-1.79,4-4V6C52,3.79,50.21,2,48,2L48,2z"/>
	</g>
	<g>
		<path style="fill:#666666;" d="M38,16c0.55,0,1,0.45,1,1v22c0,0.55-0.45,1-1,1h-8c-0.55,0-1-0.45-1-1V17c0-0.55,0.45-1,1-1H38
			 M38,14h-8c-1.65,0-3,1.35-3,3v22c0,1.65,1.35,3,3,3h8c1.65,0,3-1.35,3-3V17C41,15.35,39.65,14,38,14L38,14z"/>
	</g>
	<rect x="28" y="27" style="fill:#666666;" width="12" height="2"/>
	<circle style="fill:#666666;" cx="34" cy="9" r="1.5"/>
	<circle style="fill:#666666;" cx="34" cy="47" r="1.5"/>
</g>
<g id="purifiers_x5F_icon_x5F_large">
</g>
</svg>
