<?xml version="1.0" encoding="iso-8859-1"?>
<!-- Generator: Adobe Illustrator 19.2.1, SVG Export Plug-In . SVG Version: 6.00 Build 0)  -->
<svg version="1.1" xmlns="http://www.w3.org/2000/svg" xmlns:xlink="http://www.w3.org/1999/xlink" x="0px" y="0px" width="68px"
	 height="56px" viewBox="0 0 68 56" style="enable-background:new 0 0 68 56;" xml:space="preserve">
<g id="Layer_1">
</g>
<g id="bell_x5F_icon_x5F_large">
</g>
<g id="security_x5F_icon_x5F_large">
</g>
<g id="camera_x5F_icon_x5F_large">
</g>
<g id="bridges_x5F_icon_x5F_large">
</g>
<g id="light_x5F_icon_x5F_large">
</g>
<g id="sensors_x5F_icon_x5F_large">
</g>
<g id="ac_x5F_icon_x5F_large">
</g>
<g id="fan_x5F_icon_x5F_large">
</g>
<g id="outlet_x5F_icon_x5F_large">
</g>
<g id="garage_x5F_icon_x5F_large">
</g>
<g id="humidifier_x5F_icon_x5F_large">
</g>
<g id="heating_x5F_icon_x5F_large">
	<g>
		<g>
			<path style="fill:#666666;" d="M43.47,3C44.73,3,46,3.72,46,5.31v36.71v0.88l0.64,0.59c1.26,1.16,1.98,2.66,1.98,4.13
				c0,2.86-2.42,5.37-5.18,5.37c-2.77,0-5.11-2.46-5.11-5.37c0-2.05,1.41-3.57,2.02-4.13L41,42.9v-0.88V5.31
				C41,3.61,42.33,3,43.47,3 M43.47,1C41.02,1,39,2.67,39,5.31v36.71c-1.47,1.35-2.67,3.36-2.67,5.6c0,4.07,3.33,7.37,7.11,7.37
				c3.78,0,7.18-3.3,7.18-7.37c0-2.24-1.16-4.25-2.62-5.6V5.31C48,2.67,45.93,1,43.47,1L43.47,1z"/>
		</g>
	</g>
	<line style="fill:none;stroke:#666666;stroke-linecap:round;stroke-miterlimit:10;" x1="43.51" y1="6.5" x2="43.51" y2="48.3"/>
	<circle style="fill:#666666;" cx="43.54" cy="47.84" r="3.19"/>
	<rect x="18" y="6" style="fill:#666666;" width="17" height="2"/>
	<rect x="23" y="11" style="fill:#666666;" width="12" height="2"/>
	<rect x="23" y="16" style="fill:#666666;" width="12" height="2"/>
	<rect x="18" y="21" style="fill:#666666;" width="17" height="2"/>
	<rect x="23" y="26" style="fill:#666666;" width="12" height="2"/>
	<rect x="23" y="31" style="fill:#666666;" width="12" height="2"/>
	<rect x="18" y="36" style="fill:#666666;" width="17" height="2"/>
</g>
<g id="locks_x5F_icon_x5F_large">
</g>
<g id="shades_x5F_icon_x5F_large">
</g>
<g id="purifiers_x5F_icon_x5F_large">
</g>
</svg>
